<svg xmlns="http://www.w3.org/2000/svg" xmlns:xlink="http://www.w3.org/1999/xlink" viewBox="0 0 727.82 213.52"><defs><style>.cls-1{fill:url(#linear-gradient);}.cls-2{fill:url(#linear-gradient-2);}.cls-3{fill:url(#linear-gradient-3);}.cls-4{fill:url(#linear-gradient-4);}.cls-5{fill:#090735;}</style><linearGradient id="linear-gradient" x1="3708.74" y1="-10586.47" x2="4006.41" y2="-10370.09" gradientTransform="translate(3982.34 -10434.14) rotate(180)" gradientUnits="userSpaceOnUse"><stop offset="0" stop-color="#9b00ff"/><stop offset="0.5" stop-color="#0075f8"/><stop offset="1" stop-color="#00ff91"/></linearGradient><linearGradient id="linear-gradient-2" x1="3809.85" y1="-10448.62" x2="3958.66" y2="-10557.12" xlink:href="#linear-gradient"/><linearGradient id="linear-gradient-3" x1="1920.08" y1="-4289.15" x2="2217.75" y2="-4072.76" gradientTransform="translate(-1976.05 4353.34)" xlink:href="#linear-gradient"/><linearGradient id="linear-gradient-4" x1="2017.07" y1="-4154.29" x2="2165.88" y2="-4262.79" gradientTransform="translate(-1976.05 4353.34)" xlink:href="#linear-gradient"/></defs><g id="Layer_2" data-name="Layer 2"><g id="Layer_1-2" data-name="Layer 1"><path class="cls-1" d="M96.1,0h41.7a75.73,75.73,0,0,1,75.72,75.72v41.7a15.09,15.09,0,0,1-15.09,15.09H152.89a15.08,15.08,0,0,1-15.09-15.09v-3.84h0v0C138,111.06,144.21,23.37,96.1,0Z"/><path class="cls-2" d="M81,60.63V15.09A15.1,15.1,0,0,1,96.1,0C144.21,23.37,138,111.06,137.8,113.53V90.81a15.09,15.09,0,0,0-15.09-15.09H96.1A15.09,15.09,0,0,1,81,60.63Z"/><path class="cls-3" d="M117.42,213.52H75.71A75.73,75.73,0,0,1,0,137.81V96.1A15.09,15.09,0,0,1,15.08,81H60.63A15.09,15.09,0,0,1,75.71,96.1v3.84h0v0C75.53,102.46,69.31,190.16,117.42,213.52Z"/><path class="cls-4" d="M132.51,152.89v45.55a15.09,15.09,0,0,1-15.09,15.08C69.31,190.16,75.53,102.46,75.71,100v22.72A15.1,15.1,0,0,0,90.8,137.81h26.62A15.09,15.09,0,0,1,132.51,152.89Z"/><path class="cls-5" d="M290.83,133.42V48.51h44.68c16.17,0,24.44,10.31,24.44,21.64,0,10.69-6.62,17.82-14.64,19.47,9,1.41,16.3,10.19,16.3,20.88,0,12.73-8.53,22.92-24.7,22.92Zm50.66-60.09c0-5.35-3.82-9.29-9.93-9.29H308.9V82.5h22.66C337.67,82.5,341.49,78.68,341.49,73.33ZM343.15,108c0-5.35-3.82-9.93-10.95-9.93H308.9v19.73h23.3C339.08,117.76,343.15,114.07,343.15,108Z"/><path class="cls-5" d="M373.19,55.64a9.68,9.68,0,1,1,9.68,9.67A9.76,9.76,0,0,1,373.19,55.64Zm1.66,77.78V71.93H391v61.49Z"/><path class="cls-5" d="M446,133.42V96.24c0-8.52-4.45-11.45-11.33-11.45a17.51,17.51,0,0,0-14,7.25v41.38H404.46V71.93h16.17v8a28.16,28.16,0,0,1,21.51-9.55c13.5,0,20,7.64,20,19.61v43.41Z"/><path class="cls-5" d="M514.58,133.42v-6.37c-4.2,5-11.46,7.89-19.48,7.89-9.8,0-21.38-6.61-21.38-20.36,0-14.39,11.58-19.86,21.38-19.86,8.15,0,15.41,2.67,19.48,7.51V94c0-6.23-5.35-10.31-13.49-10.31a25.87,25.87,0,0,0-17.95,7.26L477,80.08a40.32,40.32,0,0,1,26.86-9.68c14,0,26.86,5.6,26.86,23.3v39.72Zm0-14.77V111c-2.67-3.56-7.76-5.34-13-5.34C495.23,105.67,490,109,490,115c0,5.73,5.22,9,11.59,9C506.82,124,511.91,122.21,514.58,118.65Z"/><path class="cls-5" d="M542.34,133.42V71.93H558.5v8.4c4.33-5.47,12-9.93,19.61-9.93V86.19a21.21,21.21,0,0,0-4.46-.38c-5.34,0-12.47,3-15.15,7v40.61Z"/><path class="cls-5" d="M589.69,55.64a9.68,9.68,0,1,1,9.68,9.67A9.76,9.76,0,0,1,589.69,55.64Zm1.66,77.78V71.93h16.17v61.49Z"/><path class="cls-5" d="M630.82,133.42V86.06H620.63V71.93h10.19V68.62c0-13.11,8.4-21.39,20.75-21.39,5.85,0,12.09,1.53,16,5.73l-6.11,9.55A9,9,0,0,0,654.75,60c-4.46,0-7.64,2.93-7.64,8.66v3.31h12.48V86.06H647.11v47.36Z"/><path class="cls-5" d="M670,143a13.88,13.88,0,0,0,5.09,1c4.2,0,7-1.14,8.53-4.45l2.29-5.22L661,71.93H678.3l16,42.77,16-42.77h17.44l-28.9,71.54c-4.58,11.59-12.73,14.64-23.29,14.9a44.14,44.14,0,0,1-8-.89Z"/><path class="cls-5" d="M383.73,167.6h-12L368,179.27h-3.47l9.64-29.81h7.11l9.59,29.81h-3.42Zm-.93-3-4.57-14.21h-1l-4.53,14.21Z"/><path class="cls-5" d="M421.27,157.83c4.05,0,9.25,2.29,9.8,8.38h-3.51c-.59-4-3.25-5.42-6.29-5.42-5,0-7.28,3.64-7.28,8s2.29,8,7.28,8c3,0,5.7-1.39,6.29-5.41h3.51c-.55,6.09-5.75,8.37-9.8,8.37-6.81,0-10.74-4.86-10.74-10.95S414.46,157.83,421.27,157.83Z"/><path class="cls-5" d="M459.14,167.31l8.37-.81c-.21-3.85-2.28-5.75-5.91-5.75-3.05,0-5.88,1.36-5.88,5.33h-3.38c0-4.36,3.29-8.25,9.26-8.25s9.38,3.89,9.38,9.52v9h3.09v3h-3.72a2.24,2.24,0,0,1-2.5-2.45v-1.14l.55-2.2h-1c-.81,3.21-3.05,6.21-8.12,6.21-6.09,0-7-4.06-7-6.25C452.25,170.1,454.24,167.81,459.14,167.31Zm.55,9.42c4.78,0,7.82-3.29,7.82-7.65l-7.77.8c-2.67.26-4,1.06-4,3.13C455.72,175.42,457.24,176.73,459.69,176.73Z"/><path class="cls-5" d="M512.29,179.27v-3.09l.59-2.36h-1c-.89,3.25-3.72,5.87-8.5,5.87-6.08,0-10-4.69-10-10.95s3.94-10.91,10-10.91c4.78,0,7.61,2.63,8.5,5.92h1l-.59-2.41V148.19h3.46v31.08Zm-7.91-18.48c-4.36,0-7.57,2.37-7.57,8s3.21,8,7.57,8,7.91-2.36,7.91-8S508.73,160.79,504.38,160.79Z"/><path class="cls-5" d="M547.92,157.83c5.92,0,9.81,3.77,9.81,10.24v1.35H541.11c.22,4,2.12,7.4,7.32,7.4,3.47,0,5.79-1.69,6.55-4.91h3.47a9.68,9.68,0,0,1-10,7.78c-7.53,0-10.7-5.15-10.7-11.2C537.73,161.72,542,157.83,547.92,157.83Zm6.43,9c0-3.38-2.24-6.05-6.43-6.05s-6.81,2.67-6.81,6.05Z"/><path class="cls-5" d="M612.52,166v13.23h-3.46V166.84c0-4.06-.89-6.05-4.32-6.05-4.18,0-6.68,3.73-6.68,9.22v9.26h-3.47V166.84c0-4.06-.88-6.05-4.31-6.05-4.18,0-6.68,3.73-6.68,9.22v9.26h-3.47v-21h3.47v3.59l-.55,2.37h1c.85-3.81,3.05-6.39,7.53-6.39,3.81,0,5.84,2.63,6.3,6.39h.63c.85-3.81,3-6.39,7.53-6.39S612.52,161.34,612.52,166Z"/><path class="cls-5" d="M654.08,158.26l-9.14,20.8v5.88c0,1.6-.93,2.58-2.91,2.49l-8.12-.38v-3l7.57.38v-5.41l-9.18-20.8h3.81l6.59,16.36v1.61h1v-1.61l6.59-16.36Z"/></g></g></svg>