<svg xmlns="http://www.w3.org/2000/svg" xmlns:xlink="http://www.w3.org/1999/xlink" viewBox="0 0 608.37 608.39"><defs><style>.cls-1{fill:url(#linear-gradient);}.cls-2{fill:url(#linear-gradient-2);}.cls-3{fill:url(#linear-gradient-3);}.cls-4{fill:url(#linear-gradient-4);}</style><linearGradient id="linear-gradient" x1="-10698.69" y1="-4073.69" x2="-9850.52" y2="-3457.15" gradientTransform="translate(-9919.1 -3639.67) rotate(180)" gradientUnits="userSpaceOnUse"><stop offset="0" stop-color="#9b00ff"/><stop offset="0.5" stop-color="#0075f8"/><stop offset="1" stop-color="#00ff91"/></linearGradient><linearGradient id="linear-gradient-2" x1="-10410.59" y1="-3680.9" x2="-9986.59" y2="-3990.06" xlink:href="#linear-gradient"/><linearGradient id="linear-gradient-3" x1="1816.57" y1="-4170.44" x2="2664.74" y2="-3553.89" gradientTransform="translate(-1976.05 4353.34)" xlink:href="#linear-gradient"/><linearGradient id="linear-gradient-4" x1="2092.92" y1="-3786.18" x2="2516.93" y2="-4095.34" gradientTransform="translate(-1976.05 4353.34)" xlink:href="#linear-gradient"/></defs><g id="Layer_2" data-name="Layer 2"><g id="Layer_1-2" data-name="Layer 1"><path class="cls-1" d="M273.81,0H392.63A215.74,215.74,0,0,1,608.37,215.75V334.58a43,43,0,0,1-43,43H435.62a43,43,0,0,1-43-43V323.63h0v-.14C393.16,316.45,410.89,66.59,273.81,0Z"/><path class="cls-2" d="M230.82,172.76V43a43,43,0,0,1,43-43C410.89,66.59,393.16,316.45,392.63,323.48V258.73a43,43,0,0,0-43-43H273.81A43,43,0,0,1,230.82,172.76Z"/><path class="cls-3" d="M334.56,608.38H215.73A215.73,215.73,0,0,1,0,392.65V273.82a43,43,0,0,1,43-43H172.75a43,43,0,0,1,43,43v10.95h0v.14C215.21,291.94,197.48,541.81,334.56,608.38Z"/><path class="cls-4" d="M377.55,435.63V565.4a43,43,0,0,1-43,43C197.48,541.81,215.21,291.94,215.73,284.92v64.74a43,43,0,0,0,43,43h75.84A43,43,0,0,1,377.55,435.63Z"/></g></g></svg>