<svg width="645" height="191" viewBox="0 0 645 191" fill="none" xmlns="http://www.w3.org/2000/svg">
<g clip-path="url(#clip0_27_70)">
<path d="M93.1607 11.0987V75.9287C93.1622 77.8759 92.6511 79.7891 91.6786 81.4761C90.7061 83.163 89.3065 84.5642 87.6207 85.5387L70.3607 95.5387L60.7607 89.9887L53.8207 85.9887L50.6607 84.1587L50.2207 83.9087L50.0007 83.7387L49.5307 83.4587L49.2907 83.3187L48.7707 82.9887L48.0007 82.5687L47.4407 82.2387L47.1507 82.0687L46.5607 81.7287L44.0007 80.2687L43.3207 79.8687L41.5707 78.8687L40.8407 78.4487L38.2107 76.9287L36.6407 75.9887L35.0507 75.0687L14.3407 63.0687L13.7207 62.7187C2.00072 55.9287 0.420723 52.5387 0.240723 51.5387C0.307562 49.6611 0.851176 47.8314 1.82038 46.2219C2.78958 44.6124 4.15247 43.276 5.78072 42.3387L76.5207 1.48867C78.2072 0.513827 80.1206 0.000380757 82.0686 2.11688e-07C84.0165 -0.000380334 85.9302 0.512318 87.617 1.4865C89.3038 2.46068 90.7043 3.86198 91.6775 5.54938C92.6507 7.23678 93.1623 9.15074 93.1607 11.0987Z" fill="url(#paint0_linear_27_70)"/>
<path d="M93.1607 115.069V179.899C93.1622 181.847 92.6506 183.761 91.6774 185.448C90.7042 187.135 89.3038 188.537 87.6169 189.511C85.9301 190.485 84.0164 190.998 82.0685 190.997C80.1206 190.997 78.2071 190.484 76.5207 189.509L5.78067 148.659C4.09368 147.685 2.69271 146.284 1.71851 144.597C0.744308 142.91 0.231178 140.997 0.230672 139.049V61.2387C-0.199328 55.4487 -0.319328 46.8487 2.56067 45.1387C2.45067 45.3487 -1.81933 53.8187 36.6407 76.0287C37.3407 76.4287 38.0107 76.8187 38.6407 77.2087L38.7907 77.2987L40.2807 78.1487L80.6807 101.459L85.5207 104.249L87.6107 105.459C89.2983 106.432 90.6999 107.832 91.6742 109.52C92.6485 111.207 93.1612 113.121 93.1607 115.069Z" fill="url(#paint1_linear_27_70)"/>
<path d="M108.411 11.0982V75.9282C108.415 77.8801 108.934 79.7963 109.916 81.4835C110.897 83.1707 112.306 84.5693 114.001 85.5382L131.251 95.5382L140.821 89.9882L147.751 85.9882L150.901 84.1582L151.341 83.9082L151.571 83.7782L152.041 83.4982L152.291 83.3582L152.801 83.0682C153.061 82.9182 153.321 82.7582 153.601 82.6082L154.161 82.2782L154.451 82.1082L155.041 81.7682L157.581 80.3082L158.261 79.9082L160.021 78.9082L160.741 78.4882L163.371 76.9682L164.931 76.0782L166.521 75.1582L187.221 63.1582L187.841 62.8082C199.591 55.9382 201.151 52.5482 201.321 51.5482C201.256 49.6713 200.714 47.8419 199.747 46.2323C198.779 44.6228 197.418 43.2861 195.791 42.3482L125.051 1.48819C123.364 0.51657 121.451 0.00569906 119.504 0.00683784C117.557 0.00797661 115.645 0.521085 113.959 1.49468C112.274 2.46827 110.873 3.8681 109.9 5.55372C108.926 7.23933 108.412 9.15144 108.411 11.0982Z" fill="url(#paint2_linear_27_70)"/>
<path d="M108.411 115.069V179.899C108.412 181.845 108.926 183.758 109.9 185.443C110.873 187.129 112.274 188.529 113.959 189.502C115.645 190.476 117.557 190.989 119.504 190.99C121.451 190.991 123.364 190.48 125.051 189.509L195.801 148.659C197.486 147.684 198.886 146.283 199.858 144.596C200.831 142.909 201.342 140.996 201.341 139.049V61.2387C201.781 55.4487 201.891 46.8487 199.011 45.1387C199.131 45.3487 203.401 53.8187 164.941 76.0287C164.241 76.4287 163.561 76.8187 162.941 77.2087L162.791 77.2987L161.311 78.1487L120.911 101.459L116.071 104.249L114.001 105.459C112.306 106.428 110.897 107.826 109.916 109.513C108.934 111.201 108.415 113.117 108.411 115.069Z" fill="url(#paint3_linear_27_70)"/>
</g>
<path d="M297.327 93.8582V95.391C301.774 96.1964 305.87 98.4483 309.041 101.831C310.476 103.386 311.605 105.224 312.364 107.24C313.123 109.256 313.496 111.411 313.462 113.579C313.517 116.373 312.91 119.136 311.697 121.621C310.483 124.105 308.702 126.231 306.513 127.807C301.886 131.387 295.613 133.177 287.693 133.177H258V55.8975H287.693C295.613 55.8975 301.7 57.7081 305.956 61.3292C308.036 63.072 309.698 65.3062 310.807 67.8511C311.916 70.396 312.441 73.1802 312.34 75.9786C312.459 80.2683 311.068 84.4529 308.435 87.7269C305.813 90.916 302.11 92.9597 297.327 93.8582ZM271.558 87.84H286.454C294.607 87.84 298.681 84.6886 298.674 78.3858C298.674 75.2379 297.721 72.9369 295.814 71.483C293.908 70.029 290.787 69.2986 286.454 69.2917H271.558V87.84ZM271.558 119.731H286.454C295.427 119.731 299.911 116.7 299.904 110.637C299.904 104.423 295.421 101.313 286.454 101.306H271.558V119.731Z" fill="white"/>
<path d="M325.449 64.0253C325.507 61.8441 326.361 59.7705 327.834 58.2371C329.307 56.7037 331.285 55.829 333.355 55.7954C334.383 55.7838 335.402 55.9983 336.346 56.4252C337.291 56.8521 338.141 57.482 338.841 58.2746C339.571 59.022 340.15 59.9161 340.546 60.9039C340.942 61.8917 341.145 62.9531 341.145 64.0253C341.158 65.1224 340.96 66.2109 340.565 67.2255C340.169 68.2402 339.583 69.1602 338.841 69.9303C338.141 70.7229 337.291 71.3528 336.346 71.7797C335.402 72.2066 334.383 72.4212 333.355 72.4096C331.26 72.3748 329.261 71.4787 327.784 69.9124C326.307 68.3461 325.469 66.2335 325.449 64.0253ZM326.689 78.7878H340.247V133.116H326.689V78.7878Z" fill="white"/>
<path d="M353.336 78.8087H366.914L363.42 92.8305L366.914 94.1679V133.137H353.336V78.8087ZM387.061 99.2396C387.124 97.8216 386.913 96.4049 386.442 95.0751C385.971 93.7454 385.248 92.5303 384.318 91.5034C383.38 90.538 382.266 89.7839 381.042 89.2869C379.819 88.79 378.512 88.5605 377.202 88.6126C375.847 88.5709 374.497 88.8161 373.233 89.3338C371.968 89.8516 370.816 90.6313 369.842 91.6268C368.866 92.6505 368.101 93.8767 367.597 95.2278C367.093 96.5789 366.86 98.0255 366.914 99.4762H364.894C364.746 93.5668 366.546 87.7862 369.989 83.1191C371.516 80.9769 373.505 79.2478 375.791 78.0745C378.077 76.9012 380.595 76.3172 383.137 76.3705C385.527 76.3487 387.89 76.9016 390.047 77.9873C392.203 79.0729 394.097 80.6627 395.582 82.6356C398.981 86.9293 400.773 92.3849 400.619 97.9742V133.168H387.061V99.2396Z" fill="white"/>
<path d="M458.99 133.136H445.325L449.132 119.557L445.325 117.787V97.2125C445.371 96.0839 445.178 94.9586 444.761 93.9179C444.344 92.8772 443.713 91.9469 442.914 91.1943C440.976 89.6458 438.589 88.8519 436.158 88.9475C433.728 89.0432 431.403 90.0224 429.58 91.719C427.777 93.6597 426.684 96.211 426.496 98.9202L413.045 97.0273C413.792 91.259 416.501 85.9728 420.668 82.1517C424.846 78.2973 430.189 76.3701 436.696 76.3701C443.203 76.3701 448.575 78.2459 452.812 81.9974C454.766 83.6806 456.336 85.8055 457.406 88.2149C458.475 90.6243 459.017 93.2564 458.99 95.9163V133.136ZM426.72 117.191C426.668 118.054 426.838 118.916 427.212 119.686C427.587 120.456 428.152 121.104 428.848 121.563C430.511 122.576 432.414 123.069 434.334 122.983C437.251 123.122 440.106 122.064 442.299 120.03C443.288 119.072 444.069 117.9 444.591 116.596C445.113 115.291 445.364 113.884 445.325 112.469H447.56C447.56 119.389 445.917 124.978 442.631 129.237C441.086 131.296 439.106 132.945 436.848 134.052C434.59 135.16 432.118 135.695 429.629 135.616C425.281 135.78 421.035 134.199 417.75 131.192C416.218 129.774 415.003 128.017 414.19 126.046C413.376 124.076 412.986 121.941 413.045 119.793C413.045 115.534 414.242 112.167 416.637 109.691C419.032 107.215 422.803 105.189 427.95 103.611L445.325 98.5293V107.788L432.548 111.564C428.663 112.716 426.72 114.591 426.72 117.191Z" fill="white"/>
<path d="M471.621 78.8085H485.179L481.48 92.6245L485.179 94.1677V133.137H471.621V78.8085ZM498.406 91.3283C495.015 91.2554 491.713 92.4714 489.103 94.754C487.865 95.7756 486.868 97.0856 486.191 98.5813C485.513 100.077 485.174 101.718 485.199 103.375L483.247 99.476C483.247 92.9469 484.76 87.7311 487.786 83.8288C489.223 81.9333 491.06 80.4179 493.152 79.4034C495.243 78.3889 497.53 77.9034 499.831 77.9855H504.204V91.3592L498.406 91.3283Z" fill="white"/>
<path d="M516.581 64.0251C516.638 61.8455 517.491 59.7734 518.962 58.2403C520.433 56.7072 522.409 55.8313 524.477 55.7951C525.498 55.7879 526.509 56.0036 527.446 56.4286C528.384 56.8535 529.227 57.4785 529.924 58.2641C530.662 59.0092 531.25 59.9034 531.652 60.8932C532.055 61.883 532.264 62.9482 532.267 64.0251C532.277 65.1285 532.075 66.2227 531.673 67.2413C531.27 68.2598 530.675 69.1816 529.924 69.9506C529.224 70.7432 528.374 71.3731 527.429 71.8C526.485 72.2269 525.466 72.4415 524.438 72.4299C522.349 72.3818 520.359 71.477 518.892 69.9077C517.424 68.3384 516.596 66.2281 516.581 64.0251ZM517.811 78.7876H531.369V133.116H517.811V78.7876Z" fill="white"/>
<path d="M567.016 133.137H553.575V90.6191H544.615V78.8091H553.575V69.4784C553.575 63.0316 555.088 58.5051 558.114 55.899C561.14 53.2928 566.128 51.9932 573.078 52H581.365V63.81H573.302C569.112 63.81 567.019 66.3305 567.026 71.3713V78.8091H582.644V90.6191H567.016V133.137Z" fill="white"/>
<path d="M620.136 113.406L630.112 78.7988H644.754L623.347 143.044C622.237 146.774 620.092 150.067 617.188 152.498C614.525 154.664 611.25 155.827 607.886 155.8H594.591V142.941H602.654C604.096 143.042 605.531 142.648 606.744 141.82C607.836 140.813 608.6 139.471 608.93 137.983L610.17 133.137L591.419 78.8091H606.061L616.212 113.406L617.335 120.021H618.906L620.136 113.406Z" fill="white"/>
<defs>
<linearGradient id="paint0_linear_27_70" x1="4.62073" y1="90.2187" x2="159.601" y2="-6.58133" gradientUnits="userSpaceOnUse">
<stop stop-color="#0036BC"/>
<stop offset="1" stop-color="#0075F8"/>
</linearGradient>
<linearGradient id="paint1_linear_27_70" x1="10.3607" y1="100.559" x2="144.811" y2="180.039" gradientUnits="userSpaceOnUse">
<stop stop-color="#0075F8"/>
<stop offset="1" stop-color="#0036BC"/>
</linearGradient>
<linearGradient id="paint2_linear_27_70" x1="30.4206" y1="-3.71181" x2="186.911" y2="79.8982" gradientUnits="userSpaceOnUse">
<stop stop-color="#0036BC"/>
<stop offset="1" stop-color="#0075F8"/>
</linearGradient>
<linearGradient id="paint3_linear_27_70" x1="87.2406" y1="164.279" x2="225.401" y2="79.7787" gradientUnits="userSpaceOnUse">
<stop stop-color="#0075F8"/>
<stop offset="1" stop-color="#0036BC"/>
</linearGradient>
<clipPath id="clip0_27_70">
<rect width="228" height="191" fill="white"/>
</clipPath>
</defs>
</svg>
