<svg xmlns="http://www.w3.org/2000/svg" xmlns:xlink="http://www.w3.org/1999/xlink" viewBox="0 0 692.2 239.71"><defs><style>.cls-1{fill:url(#linear-gradient);}.cls-2{fill:url(#linear-gradient-2);}.cls-3{fill:url(#linear-gradient-3);}.cls-4{fill:url(#linear-gradient-4);}.cls-5{fill:#090735;}</style><linearGradient id="linear-gradient" x1="-11037.24" y1="-10742.14" x2="-10866.08" y2="-10617.72" gradientTransform="translate(-10310.49 -10654.55) rotate(180)" gradientUnits="userSpaceOnUse"><stop offset="0" stop-color="#9b00ff"/><stop offset="0.5" stop-color="#0075f8"/><stop offset="1" stop-color="#00ff91"/></linearGradient><linearGradient id="linear-gradient-2" x1="-10979.11" y1="-10662.87" x2="-10893.54" y2="-10725.26" xlink:href="#linear-gradient"/><linearGradient id="linear-gradient-3" x1="1943.86" y1="-4199.5" x2="2115.02" y2="-4075.08" gradientTransform="translate(-1976.05 4353.34)" xlink:href="#linear-gradient"/><linearGradient id="linear-gradient-4" x1="1999.63" y1="-4121.95" x2="2085.2" y2="-4184.34" gradientTransform="translate(-1976.05 4353.34)" xlink:href="#linear-gradient"/></defs><g id="Layer_2" data-name="Layer 2"><g id="Layer_1-2" data-name="Layer 1"><path class="cls-1" d="M624.68,0h24A43.53,43.53,0,0,1,692.2,43.54v24a8.67,8.67,0,0,1-8.67,8.67H657.34a8.68,8.68,0,0,1-8.68-8.67V65.31h0v0C648.77,63.86,652.35,13.44,624.68,0Z"/><path class="cls-2" d="M616,34.86V8.68A8.68,8.68,0,0,1,624.68,0c27.67,13.44,24.09,63.86,24,65.28V52.21A8.67,8.67,0,0,0,640,43.54H624.68A8.68,8.68,0,0,1,616,34.86Z"/><path class="cls-3" d="M67.51,239.71h-24A43.55,43.55,0,0,1,0,196.17v-24a8.67,8.67,0,0,1,8.67-8.67H34.86a8.68,8.68,0,0,1,8.68,8.67v2.21h0v0C43.43,175.85,39.85,226.27,67.51,239.71Z"/><path class="cls-4" d="M76.19,204.84V231a8.68,8.68,0,0,1-8.68,8.68c-27.66-13.44-24.08-63.86-24-65.28V187.5a8.67,8.67,0,0,0,8.67,8.67h15.3A8.67,8.67,0,0,1,76.19,204.84Z"/><path class="cls-5" d="M76.19,154.9V50h55.2c20,0,30.19,12.74,30.19,26.74,0,13.21-8.18,22-18.08,24.06,11.16,1.73,20.12,12.58,20.12,25.79,0,15.72-10.53,28.3-30.5,28.3Zm62.59-74.22c0-6.61-4.72-11.48-12.27-11.48h-28V92h28C134.06,92,138.78,87.28,138.78,80.68Zm2,42.77c0-6.6-4.72-12.26-13.52-12.26H98.52v24.37H127.3C135.79,135.56,140.82,131,140.82,123.45Z"/><path class="cls-5" d="M177.94,58.82a11.95,11.95,0,1,1,11.95,11.95A12,12,0,0,1,177.94,58.82Zm2,96.08V79h20v76Z"/><path class="cls-5" d="M267.83,154.9V109c0-10.53-5.51-14.15-14-14.15a21.65,21.65,0,0,0-17.3,9V154.9h-20V79h20v9.91a34.8,34.8,0,0,1,26.58-11.8c16.67,0,24.69,9.44,24.69,24.22V154.9Z"/><path class="cls-5" d="M352.59,154.9V147c-5.19,6.13-14.15,9.75-24.06,9.75-12.11,0-26.42-8.18-26.42-25.16,0-17.77,14.31-24.53,26.42-24.53,10.07,0,19,3.3,24.06,9.27V106.15c0-7.7-6.6-12.73-16.67-12.73a32,32,0,0,0-22.17,9L306.2,89c9.28-8.18,21.23-12,33.18-12,17.3,0,33.18,6.92,33.18,28.78V154.9Zm0-18.24v-9.43c-3.3-4.41-9.59-6.61-16-6.61-7.86,0-14.31,4.09-14.31,11.48,0,7.08,6.45,11.17,14.31,11.17C343,143.27,349.29,141.06,352.59,136.66Z"/><path class="cls-5" d="M386.88,154.9V79h20V89.33c5.35-6.76,14.78-12.27,24.22-12.27v19.5a27,27,0,0,0-5.51-.47c-6.6,0-15.41,3.77-18.71,8.65V154.9Z"/><path class="cls-5" d="M445.38,58.82a11.95,11.95,0,1,1,11.95,11.95A12,12,0,0,1,445.38,58.82Zm2.05,96.08V79h20v76Z"/><path class="cls-5" d="M496.18,154.9V96.4H483.6V79h12.58V74.86c0-16.2,10.38-26.42,25.63-26.42,7.23,0,14.94,1.89,19.82,7.08l-7.55,11.79a11.17,11.17,0,0,0-8.34-3.14c-5.5,0-9.43,3.61-9.43,10.69V79h15.41V96.4H516.31v58.5Z"/><path class="cls-5" d="M544.62,166.7a17.38,17.38,0,0,0,6.29,1.26c5.19,0,8.65-1.42,10.53-5.51l2.83-6.45L533.45,79h21.39l19.81,52.84L594.47,79H616l-35.7,88.38c-5.66,14.31-15.72,18.08-28.77,18.4a54.49,54.49,0,0,1-9.91-1.11Z"/><path class="cls-5" d="M224.21,182.36H212.6L209,193.69h-3.36L215,164.76h6.9l9.31,28.93h-3.32Zm-.9-2.87-4.43-13.78h-.94l-4.39,13.78Z"/><path class="cls-5" d="M260.64,172.89c3.94,0,9,2.21,9.52,8.12h-3.4c-.58-3.9-3.16-5.25-6.12-5.25-4.84,0-7,3.53-7,7.71s2.21,7.76,7,7.76c3,0,5.54-1.36,6.12-5.26h3.4c-.53,5.91-5.58,8.13-9.52,8.13-6.6,0-10.42-4.72-10.42-10.63S254,172.89,260.64,172.89Z"/><path class="cls-5" d="M297.4,182.08l8.13-.78c-.21-3.74-2.22-5.58-5.75-5.58-2.95,0-5.7,1.31-5.7,5.17H290.8c0-4.23,3.2-8,9-8s9.11,3.77,9.11,9.23v8.7h3v2.87h-3.61a2.18,2.18,0,0,1-2.43-2.38V190.2l.54-2.13h-1c-.78,3.12-2.95,6-7.87,6-5.91,0-6.82-3.94-6.82-6.07C290.71,184.79,292.64,182.57,297.4,182.08Zm.54,9.15a7.18,7.18,0,0,0,7.59-7.43l-7.55.78c-2.59.25-3.9,1-3.9,3C294.08,190,295.56,191.23,297.94,191.23Z"/><path class="cls-5" d="M349,193.69v-3l.58-2.29h-1c-.86,3.15-3.61,5.7-8.24,5.7-5.91,0-9.73-4.56-9.73-10.63s3.82-10.58,9.73-10.58c4.63,0,7.38,2.54,8.24,5.74h1l-.58-2.34V163.53h3.37v30.16Zm-7.67-17.93c-4.23,0-7.34,2.3-7.34,7.71s3.11,7.76,7.34,7.76,7.67-2.3,7.67-7.76S345.53,175.76,341.3,175.76Z"/><path class="cls-5" d="M383.56,172.89c5.74,0,9.51,3.65,9.51,9.93v1.31H377c.2,3.86,2.05,7.18,7.1,7.18,3.36,0,5.62-1.64,6.36-4.76h3.36a9.39,9.39,0,0,1-9.72,7.55c-7.31,0-10.38-5-10.38-10.87C373.67,176.66,377.77,172.89,383.56,172.89Zm6.23,8.69c0-3.28-2.17-5.86-6.23-5.86S377,178.3,377,181.58Z"/><path class="cls-5" d="M446.25,180.85v12.84h-3.37V181.62c0-3.93-.86-5.86-4.18-5.86-4.07,0-6.49,3.61-6.49,8.94v9h-3.36V181.62c0-3.93-.86-5.86-4.19-5.86-4.06,0-6.48,3.61-6.48,8.94v9h-3.36V173.3h3.36v3.48l-.53,2.3h.94c.82-3.69,3-6.19,7.3-6.19,3.7,0,5.67,2.54,6.12,6.19h.61c.82-3.69,3-6.19,7.31-6.19S446.25,176.29,446.25,180.85Z"/><path class="cls-5" d="M486.57,173.3l-8.86,20.18v5.71c0,1.56-.9,2.5-2.83,2.42l-7.88-.37v-2.87l7.34.37v-5.26l-8.9-20.18h3.69l6.4,15.87v1.56h1v-1.56l6.4-15.87Z"/></g></g></svg>